<svg xmlns="http://www.w3.org/2000/svg" width="410.533" height="258.128" viewBox="0 0 410.533 258.128">
  <g id="グループ_15" data-name="グループ 15" transform="translate(-84.703 -32.095)">
    <circle id="楕円形_3" data-name="楕円形 3" cx="31.299" cy="31.299" r="31.299" transform="translate(242.025 129.034)" fill="#fff"/>
    <path id="パス_40" data-name="パス 40" d="M714.236,248.539c-.307.252-.614.494-.928.731H635.749q-.866-.356-1.726-.731a91.332,91.332,0,0,1-22.62-14.083,92.621,92.621,0,0,1-11.7-11.495c-4.208-5.173-8.083-10.811-9.886-17.234s-1.262-13.787,2.756-19.114a17.115,17.115,0,0,1,4.515-4.135c.289-.183.581-.358.881-.523a22.5,22.5,0,0,1,16.324-1.963c7.769,2.007,14.225,7.612,18.832,14.185s7.6,14.116,10.544,21.578a46.749,46.749,0,0,1,24.28-31.314,43.31,43.31,0,0,1,39.394.578,39.6,39.6,0,0,1,10.072,7.934c.288.311.57.629.848.951a39.707,39.707,0,0,1,9.791,24.345A38.161,38.161,0,0,1,714.236,248.539Z" transform="translate(-232.84 -147.183)" fill="#fff"/>
    <path id="パス_41" data-name="パス 41" d="M653.156,253.712h-1.1c-.014-.245-.033-.486-.055-.731a81.953,81.953,0,0,0-2.4-14.163A87.308,87.308,0,0,0,635.6,209.4a83.579,83.579,0,0,0-23.947-22.1.52.52,0,0,1-.256-.377.547.547,0,0,1,.808-.57.863.863,0,0,1,.073.048,82.782,82.782,0,0,1,14.668,11.378,88.077,88.077,0,0,1,18.906,27.1,85.4,85.4,0,0,1,7.246,28.1C653.12,253.226,653.138,253.47,653.156,253.712Z" transform="translate(-247.147 -151.624)" fill="#9a1750"/>
    <path id="パス_42" data-name="パス 42" d="M806.411,217.444a.066.066,0,0,1-.025.007c-.8.146-1.6.3-2.4.464a108.534,108.534,0,0,0-19.132,5.809,112.9,112.9,0,0,0-17.732,9.14,114.722,114.722,0,0,0-15.885,12.094,112.419,112.419,0,0,0-13.524,14.668,108.731,108.731,0,0,0-8.266,12.452c-.139.241-.274.486-.409.731h-1.254c.132-.245.267-.49.406-.731a109.673,109.673,0,0,1,10.229-15.11,113.627,113.627,0,0,1,14.006-14.533,116.207,116.207,0,0,1,16.225-11.8,114.012,114.012,0,0,1,18.1-8.833,108.618,108.618,0,0,1,18.81-5.309l.534-.1C806.781,216.27,807.073,217.3,806.411,217.444Z" transform="translate(-320.986 -170.723)" fill="#9a1750"/>
    <path id="パス_43" data-name="パス 43" d="M324.775,354.935c2.879-5.435,3.354-12.514-.226-17.515a17.208,17.208,0,0,0-8.95-6.034,47.29,47.29,0,0,0-10.826-1.694,36.238,36.238,0,0,0-10.824.34c-3.531.817-6.951,2.815-8.671,6-2.906,5.389-.259,12.3-2.393,18.038-1.959,5.266-7.533,8.345-13.012,9.587s-11.2,1.11-16.681,2.341-11.066,4.281-13.059,9.534c-1.441,3.8-.725,8.174,1.174,11.766a30.31,30.31,0,0,0,8.031,9.057c4.71,3.815,10.221,7.082,16.273,7.412,6.377.348,12.612-2.687,17.2-7.128s7.715-10.18,10.211-16.058c1.584-3.729,3.08-7.743,6.254-10.261,2.332-1.85,5.3-2.661,8.175-3.428l3.257-.868a22.365,22.365,0,0,0,13.975-10.93Z" transform="translate(-154.669 -249.639)" fill="#121212"/>
    <path id="パス_44" data-name="パス 44" d="M141.751,506.9h-6.616l-3.148-25.52h9.766Z" transform="translate(2.666 -222.818)" fill="#fff"/>
    <path id="パス_45" data-name="パス 45" d="M122.21,525.162h12.76V533.2H114.176A8.034,8.034,0,0,1,122.21,525.162Z" transform="translate(10.865 -242.973)" fill="#121212"/>
    <path id="パス_46" data-name="パス 46" d="M243.751,506.9h-6.616l-3.148-25.52h9.766Z" transform="translate(-44.286 -222.818)" fill="#fff"/>
    <path id="パス_47" data-name="パス 47" d="M224.21,525.162h12.76V533.2H216.176A8.034,8.034,0,0,1,224.21,525.162Z" transform="translate(-36.087 -242.973)" fill="#121212"/>
    <path id="パス_48" data-name="パス 48" d="M348.461,581a2.579,2.579,0,0,1-.276-.015L321.266,578.1a2.531,2.531,0,0,1-2.193-3.1l23.834-90.651a2.547,2.547,0,0,1,1.914-1.885l22.11-6.163a2.549,2.549,0,0,1,2.455.8c14.216,16.034,24.928,51.578,33.043,96.38a2.532,2.532,0,0,1-2.171,2.963L378.2,579.259a2.524,2.524,0,0,1-2.791-1.957L364.681,529.46a1.969,1.969,0,0,0-3.852.044l-9.893,49.463A2.518,2.518,0,0,1,348.461,581Z" transform="translate(-191.325 -317.207)" fill="#e3afbc"/>
    <circle id="楕円形_2" data-name="楕円形 2" cx="13.255" cy="13.255" r="13.255" transform="translate(139.786 91.233)" fill="#fff"/>
    <path id="パス_49" data-name="パス 49" d="M356.166,452.853a2.526,2.526,0,0,1-2.44-1.881l-7.974-29.958a9.055,9.055,0,0,1,5.456-10.775,37.734,37.734,0,0,1,18.177-2.764h0c5.015.6,11.2,30.286,10.792,30.92l1.979,5.936A2.531,2.531,0,0,1,380.3,447.6l-23.582,5.188A2.549,2.549,0,0,1,356.166,452.853Z" transform="translate(-203.495 -285.456)" fill="#e3e2df"/>
    <path id="パス_50" data-name="パス 50" d="M367.239,532.522a4.107,4.107,0,0,0-3.977-4.884l-4.594-13.854-4.7,5.956,5.083,12.243a4.129,4.129,0,0,0,8.184.539Z" transform="translate(-207.421 -334.489)" fill="#fff"/>
    <path id="パス_51" data-name="パス 51" d="M472.369,478.764a4.107,4.107,0,0,0-6.144-1.383l-12.173-8.053-.011,7.585L465.6,483.4a4.129,4.129,0,0,0,6.767-4.633Z" transform="translate(-253.484 -314.025)" fill="#fff"/>
    <path id="パス_52" data-name="パス 52" d="M348.9,481.39a2.531,2.531,0,0,1-2.4-1.737l-10.77-22.783a13.161,13.161,0,0,1-.667-4.139l3.238-29.613a6.508,6.508,0,0,1,12.968-.786l-4.954,33.8,7.906,20.745a2.526,2.526,0,0,1-1.338,2.82l-2.849,1.425A2.527,2.527,0,0,1,348.9,481.39Z" transform="translate(-198.716 -289.757)" fill="#e3e2df"/>
    <path id="パス_53" data-name="パス 53" d="M425.7,453.436a2.522,2.522,0,0,1-1.141-.272l-21.419-10.819a13.148,13.148,0,0,1-3.394-2.461l-20.906-20.973a6.508,6.508,0,0,1,8.631-9.711L410.12,434.35l17.952,11.4a2.526,2.526,0,0,1,1.043,2.941l-1.012,3.02A2.532,2.532,0,0,1,425.7,453.436Z" transform="translate(-217.995 -285.706)" fill="#e3e2df"/>
    <path id="パス_54" data-name="パス 54" d="M338.061,355.1a15.435,15.435,0,0,0,9.118,5.738,16.122,16.122,0,0,0,10.826-1.551,30.03,30.03,0,0,0,6.9-5.739c.873-.89,1.8-1.915,1.759-3.129-.068-1.88-2.328-2.908-4.268-3.318a30.457,30.457,0,0,0-18.907,2.126c-2.634,1.223-5.377,3.437-4.982,6.188" transform="translate(-200.097 -257.468)" fill="#121212"/>
    <path id="パス_55" data-name="パス 55" d="M753.364,368.723H493.236a9.187,9.187,0,0,0-9.175,9.174V478.279a9.188,9.188,0,0,0,9.175,9.175H753.364a9.188,9.188,0,0,0,9.175-9.175V377.9A9.187,9.187,0,0,0,753.364,368.723Zm8.1,109.556a8.106,8.106,0,0,1-8.1,8.1H493.236a8.105,8.105,0,0,1-8.1-8.1V377.9a8.105,8.105,0,0,1,8.1-8.1H753.364a8.105,8.105,0,0,1,8.1,8.1Z" transform="translate(-267.303 -267.715)" fill="#fff"/>
    <path id="パス_57" data-name="パス 57" d="M827.96,441.723H703.293a6.744,6.744,0,0,0-6.735,6.481,2.2,2.2,0,0,0-.011.264,6.756,6.756,0,0,0,6.746,6.746H827.96a6.746,6.746,0,1,0,0-13.492Z" transform="translate(-365.113 -301.318)" fill="#fff"/>
    <path id="パス_58" data-name="パス 58" d="M827.96,490.723H703.293a6.744,6.744,0,0,0-6.735,6.481,2.2,2.2,0,0,0-.011.265,6.755,6.755,0,0,0,6.746,6.746H827.96a6.746,6.746,0,1,0,0-13.492Z" transform="translate(-365.113 -323.873)" fill="#fff"/>
    <path id="パス_59" data-name="パス 59" d="M570.865,478.882a4.027,4.027,0,0,1-2.423-.8l-.043-.033-9.123-6.985a4.053,4.053,0,0,1,4.931-6.434l5.909,4.531,13.964-18.211a4.053,4.053,0,0,1,5.683-.75l-.087.118.089-.116a4.058,4.058,0,0,1,.75,5.683L574.09,477.3A4.053,4.053,0,0,1,570.865,478.882Z" transform="translate(-301.195 -304.833)" fill="#9a1750"/>
    <path id="パス_61" data-name="パス 61" d="M786.729,322.5a72.474,72.474,0,0,0-22.976.518,73.97,73.97,0,0,0-21.634,7.564,71.35,71.35,0,0,0-10.8,7.133c-.551.44.229,1.212.776.776a70.853,70.853,0,0,1,19.665-11.054,72.986,72.986,0,0,1,21.96-4.455,69.858,69.858,0,0,1,12.714.577.568.568,0,0,0,.675-.383.552.552,0,0,0-.383-.675Z" transform="translate(-323.113 -237.614)" fill="#9a1750"/>
  </g>
</svg>
