<svg xmlns="http://www.w3.org/2000/svg" width="23.686" height="19.563" viewBox="0 0 23.686 19.563">
  <g id="グループ_14" data-name="グループ 14" transform="translate(0 0)">
    <path id="パス_32" data-name="パス 32" d="M59.365,279.89l.177.177a4.993,4.993,0,0,1-7.066,7.04l-9.353-9.354a3.323,3.323,0,0,1,4.7,0l6.84,6.84c.02.02.041.04.062.059a1.661,1.661,0,0,0,2.287-.06h0a1.662,1.662,0,0,0,0-2.35l-2.351-2.352A3.325,3.325,0,0,1,59.365,279.89Z" transform="translate(-43.122 -268.841)" fill="#fff"/>
    <path id="パス_33" data-name="パス 33" d="M113.365,195.822l9.435,9.435-.03.03a3.324,3.324,0,0,1-4.671-.029l-5.632-5.632-.03-.031-.031-.03-1.146-1.147c-.021-.021-.041-.04-.062-.059a1.661,1.661,0,0,0-2.287.06h0a1.662,1.662,0,0,0,0,2.35l2.351,2.351h0a3.325,3.325,0,0,1-4.7,0l0,0-.062-.064a4.993,4.993,0,0,1,6.868-7.235Z" transform="translate(-99.114 -194.602)" fill="#fff"/>
  </g>
</svg>
