<svg xmlns="http://www.w3.org/2000/svg" width="119.471" height="119.471" viewBox="0 0 24 24">
  <g id="グループ_13" data-name="グループ 13" transform="translate(295.589 180.86)">
    <path id="パス_74" data-name="パス 74" d="M59.736,0A59.736,59.736,0,1,1,0,59.736,59.736,59.736,0,0,1,59.736,0Z" transform="translate(-295.589 -180.86)" fill="#fff"/>
    <path id="パス_21" data-name="パス 21" d="M165.53,295.664c.038.038.075.075.111.115l-.226-.226C165.455,295.59,165.491,295.626,165.53,295.664Z" transform="translate(-401.381 -416.79)" fill="#39b44a"/>
    <path id="パス_22" data-name="パス 22" d="M165.273,294.237l-1.175,1.175,0,0Z" transform="translate(-400.537 -415.949)" fill="#39b44a"/>
    <path id="パス_23" data-name="パス 23" d="M165.273,294.237l-1.175,1.175,0,0Z" transform="translate(-400.537 -415.949)" fill="#39b44a"/>
    <path id="パス_24" data-name="パス 24" d="M165.512,295.64l-.017.017-.542-.542C165.135,295.3,165.321,295.473,165.512,295.64Z" transform="translate(-401.086 -416.51)" fill="#39b44a"/>
    <path id="パス_25" data-name="パス 25" d="M165.53,295.664c.038.038.075.075.111.115l-.226-.226C165.455,295.59,165.491,295.626,165.53,295.664Z" transform="translate(-401.381 -416.79)" fill="#39b44a"/>
    <path id="パス_26" data-name="パス 26" d="M165.512,295.64l-.017.017-.542-.542C165.135,295.3,165.321,295.473,165.512,295.64Z" transform="translate(-401.086 -416.51)" fill="#39b44a"/>
    <path id="パス_27" data-name="パス 27" d="M165.53,295.664c.038.038.075.075.111.115l-.226-.226C165.455,295.59,165.491,295.626,165.53,295.664Z" transform="translate(-401.381 -416.79)" fill="#39b44a"/>
    <path id="パス_28" data-name="パス 28" d="M165.53,295.664c.038.038.075.075.111.115l-.226-.226C165.455,295.59,165.491,295.626,165.53,295.664Z" transform="translate(-401.381 -416.79)" fill="#39b44a"/>
    <path id="パス_29" data-name="パス 29" d="M165.53,295.664c.038.038.075.075.111.115l-.226-.226C165.455,295.59,165.491,295.626,165.53,295.664Z" transform="translate(-401.381 -416.79)" fill="#39b44a"/>
    <path id="パス_30" data-name="パス 30" d="M165.512,295.64l-.017.017-.542-.542C165.135,295.3,165.321,295.473,165.512,295.64Z" transform="translate(-401.086 -416.51)" fill="#39b44a"/>
    <path id="パス_31" data-name="パス 31" d="M165.685,295.821l0,0-.113-.113C165.61,295.746,165.646,295.783,165.685,295.821Z" transform="translate(-401.48 -416.891)" fill="#39b44a"/>
    <g id="グループ_1" data-name="グループ 1" transform="translate(-280.046 -157.625)">
      <path id="パス_32" data-name="パス 32" d="M103.733,288.386l.66.66a18.633,18.633,0,0,1-26.367,26.271l-34.9-34.9a12.4,12.4,0,0,1,17.546,0l25.524,25.524c.075.075.153.15.233.219a6.2,6.2,0,0,0,8.533-.223l0,0a6.2,6.2,0,0,0,0-8.77l-8.775-8.775A12.407,12.407,0,0,1,103.733,288.386Z" transform="translate(-43.122 -247.159)" fill="#9a1750"/>
      <path id="パス_33" data-name="パス 33" d="M135.939,199.156l35.208,35.208-.113.113a12.4,12.4,0,0,1-17.43-.11l-21.018-21.018c-.037-.04-.073-.076-.111-.115s-.075-.075-.115-.111l-4.278-4.278c-.077-.077-.153-.15-.233-.219a6.2,6.2,0,0,0-8.533.223h0a6.2,6.2,0,0,0,0,8.77l8.775,8.775h0a12.406,12.406,0,0,1-17.529.013l-.015-.015c-.08-.08-.156-.16-.233-.239a18.632,18.632,0,0,1,25.629-27Z" transform="translate(-82.761 -194.602)" fill="#9a1750"/>
    </g>
    <path id="パス_34" data-name="パス 34" d="M165.512,295.64l-.017.017-.542-.542C165.135,295.3,165.321,295.473,165.512,295.64Z" transform="translate(-401.086 -416.51)" fill="#39b44a"/>
    <path id="パス_35" data-name="パス 35" d="M163.981,294.119l1.26,1.26c-.219-.2-.434-.4-.645-.615S164.18,294.339,163.981,294.119Z" transform="translate(-400.464 -415.873)" fill="#39b44a"/>
    <path id="パス_36" data-name="パス 36" d="M164.542,294.647q.342.341.661.695l-1.356-1.356Q164.2,294.3,164.542,294.647Z" transform="translate(-400.378 -415.788)" fill="#39b44a"/>
    <path id="パス_37" data-name="パス 37" d="M165.512,295.64l-.017.017-.542-.542C165.135,295.3,165.321,295.473,165.512,295.64Z" transform="translate(-401.086 -416.51)" fill="#39b44a"/>
    <path id="パス_38" data-name="パス 38" d="M165.53,295.664c.038.038.075.075.111.115l-.226-.226C165.455,295.59,165.491,295.626,165.53,295.664Z" transform="translate(-401.381 -416.79)" fill="#39b44a"/>
    <path id="パス_39" data-name="パス 39" d="M164.1,294.174c.314.314.615.638.9.969l-1.872-1.871Q163.628,293.7,164.1,294.174Z" transform="translate(-399.921 -415.331)" fill="#39b44a"/>
  </g>
</svg>
